<svg width="62" height="52" viewBox="0 0 62 52" fill="none" xmlns="http://www.w3.org/2000/svg">
<path d="M1 51.0029L1.54766 44.5925C1.90137 40.454 5.08277 37.094 9.2416 36.4656L19.7994 34.8672L26.706 41.7053L33.6127 34.8672L34.8925 35.0604" stroke="#1D1D1D" stroke-width="2" stroke-linecap="round" stroke-linejoin="round"/>
<path d="M19.7993 34.8692L20.792 33.3984" stroke="#1D1D1D" stroke-width="2" stroke-linecap="round" stroke-linejoin="round"/>
<path d="M32.6182 33.3984L33.6108 34.8692" stroke="#1D1D1D" stroke-width="2" stroke-linecap="round" stroke-linejoin="round"/>
<path d="M36.3701 15.6328C37.5244 16.0906 37.7354 17.0905 37.6632 18.2067C37.6632 18.2067 37.2467 21.7055 36.1305 22.0976C35.0009 26.8027 31.9336 31.2508 26.7061 31.2508C21.8608 31.2508 18.5957 26.8177 17.3482 22.122C16.1977 21.7449 15.7471 18.2086 15.7471 18.2086C15.6748 17.0905 15.8859 16.0906 17.044 15.6328" stroke="#1D1D1D" stroke-width="2" stroke-linecap="round" stroke-linejoin="round"/>
<path d="M29.4539 3.77344C34.6548 4.90093 38.5246 9.16328 38.5246 14.2473V15.4442" stroke="#1D1D1D" stroke-width="2" stroke-linecap="round" stroke-linejoin="round"/>
<path d="M14.8875 15.4461V14.2492C14.8875 9.16328 18.7572 4.90093 23.962 3.77344" stroke="#1D1D1D" stroke-width="2" stroke-linecap="round" stroke-linejoin="round"/>
<path d="M24.1863 7.7781V2.55148C24.1863 1.69413 24.8899 1 25.7589 1H27.651C28.5201 1 29.2237 1.69413 29.2237 2.55148V7.77998" stroke="#1D1D1D" stroke-width="2" stroke-linecap="round" stroke-linejoin="round"/>
<path d="M13.0791 15.4453H40.333" stroke="#1D1D1D" stroke-width="2" stroke-linecap="round" stroke-linejoin="round"/>
<path d="M34.0577 45.0187C30.9067 48.2136 26.706 51.0014 26.706 51.0014C26.706 51.0014 15.9524 43.8631 15.9524 39.3438" stroke="#1D1D1D" stroke-width="2" stroke-linecap="round" stroke-linejoin="round"/>
<path d="M8.0874 50.9983C8.0874 50.9983 9.23978 45.843 9.23978 36.4609" stroke="#1D1D1D" stroke-width="2" stroke-linecap="round" stroke-linejoin="round"/>
<path d="M61 25.999C61 31.629 56.3734 36.1934 50.6666 36.1934C44.9599 36.1934 40.3333 31.629 40.3333 25.999C40.3333 20.3691 44.9599 15.8047 50.6666 15.8047C52.4503 15.8047 54.1276 16.2512 55.5918 17.0354" stroke="#246BEB" stroke-width="2" stroke-linecap="round" stroke-linejoin="round"/>
<path d="M46.4832 25.7476L50.1533 29.3684L59.2791 20.3672" stroke="#246BEB" stroke-width="2" stroke-linecap="round" stroke-linejoin="round"/>
</svg>
