<svg width="57" height="50" viewBox="0 0 57 50" fill="none" xmlns="http://www.w3.org/2000/svg">
<g clip-path="url(#clip0_1059_29084)">
<path d="M4.65161 34.3828H1.41252C1.0303 34.3828 0.720459 34.6926 0.720459 35.0747V48.5946C0.720459 48.9767 1.0303 49.2865 1.41252 49.2865H4.65161C5.03382 49.2865 5.34367 48.9767 5.34367 48.5946V35.0747C5.34367 34.6926 5.03382 34.3828 4.65161 34.3828Z" stroke="#1D1D1D" stroke-width="2" stroke-linecap="round" stroke-linejoin="round"/>
<path d="M5.63696 35.9143C13.888 33.2037 14.6102 27.1189 15.9357 25.4687C16.3999 24.8891 16.9428 24.75 17.5108 24.75C18.6218 24.75 19.525 25.6463 19.5334 26.757C19.5485 28.9132 19.1178 31.0509 18.2683 33.0328L17.5108 34.8003H25.1637C27.1628 34.8003 28.634 36.6733 28.1598 38.615L26.4808 45.4922C25.9412 47.7002 23.9622 49.2533 21.69 49.2533H11.9945C11.9945 49.2533 9.75579 49.1226 8.52081 48.3469" stroke="#1D1D1D" stroke-width="2" stroke-linecap="round" stroke-linejoin="round"/>
<path d="M21.05 22.9987V7.07812H52.5093V45.6809H30.521" stroke="#1D1D1D" stroke-width="2" stroke-linecap="round" stroke-linejoin="round"/>
<path d="M17.2781 21.5633V3.47656H23.2251" stroke="#1D1D1D" stroke-width="2" stroke-linecap="round" stroke-linejoin="round"/>
<path d="M50.3343 3.47656H56.2796V49.2816H29.0984" stroke="#1D1D1D" stroke-width="2" stroke-linecap="round" stroke-linejoin="round"/>
<path d="M26.6953 4.52676V0.71875H46.8621V4.52676" stroke="#1D1D1D" stroke-width="2" stroke-linecap="round" stroke-linejoin="round"/>
<path d="M26.9736 15.0995L28.6175 16.9089L31.2215 14.0391" stroke="#246BEB" stroke-width="2" stroke-linecap="round" stroke-linejoin="round"/>
<path d="M34.9062 16.2266H46.8455" stroke="#246BEB" stroke-width="2" stroke-linecap="round" stroke-linejoin="round"/>
<path d="M26.9736 22.623L28.6175 24.4323L31.2215 21.5625" stroke="#246BEB" stroke-width="2" stroke-linecap="round" stroke-linejoin="round"/>
<path d="M34.9062 23.75H46.8455" stroke="#246BEB" stroke-width="2" stroke-linecap="round" stroke-linejoin="round"/>
<path d="M26.9736 30.1386L28.6175 31.948L31.2215 29.0781" stroke="#246BEB" stroke-width="2" stroke-linecap="round" stroke-linejoin="round"/>
<path d="M34.9062 31.2656H46.8455" stroke="#246BEB" stroke-width="2" stroke-linecap="round" stroke-linejoin="round"/>
<path d="M34.9062 38.7891H46.8455" stroke="#246BEB" stroke-width="2" stroke-linecap="round" stroke-linejoin="round"/>
</g>
<defs>
<clipPath id="clip0_1059_29084">
<rect width="57" height="50" fill="white"/>
</clipPath>
</defs>
</svg>
