<svg width="55" height="50" viewBox="0 0 55 50" fill="none" xmlns="http://www.w3.org/2000/svg">
<g clip-path="url(#clip0_1059_29053)">
<path d="M22.3621 9.95309V8.49219H54.2671V31.21H22.3621V22.0484" stroke="#1D1D1D" stroke-width="2" stroke-linecap="round" stroke-linejoin="round"/>
<path d="M0.73291 49.2656H54.2671" stroke="#1D1D1D" stroke-width="2" stroke-linecap="round" stroke-linejoin="round"/>
<path d="M10.7122 33.1149V46.7501C10.7122 48.1355 9.59583 49.2603 8.21695 49.2603C6.83978 49.2603 5.72168 48.1372 5.72168 46.7501V18.3516" stroke="#1D1D1D" stroke-width="2" stroke-linecap="round" stroke-linejoin="round"/>
<path d="M5.72175 18.4222V27.1259C5.72175 28.5114 4.60535 29.6362 3.22648 29.6362C1.8493 29.6362 0.731201 28.5131 0.731201 27.1259V18.0193C0.731201 15.389 2.84639 13.2542 5.46097 13.2456L27.5247 13.1719C28.9496 13.1685 30.1069 14.3293 30.1069 15.7628C30.1069 17.1945 28.953 18.3536 27.5315 18.3536H17.905C16.688 18.3536 15.7011 19.3464 15.7011 20.5707V46.7538C15.7011 48.1393 14.5847 49.2641 13.2059 49.2641C11.8287 49.2641 10.7106 48.141 10.7106 46.7538V33.1187" stroke="#1D1D1D" stroke-width="2" stroke-linecap="round" stroke-linejoin="round"/>
<path d="M14.9155 8.94531C14.9155 11.2807 13.0338 13.1737 10.7124 13.1737C8.39096 13.1737 6.50928 11.2807 6.50928 8.94531" stroke="#1D1D1D" stroke-width="2" stroke-linecap="round" stroke-linejoin="round"/>
<path d="M48.4634 34.2188V49.2599" stroke="#1D1D1D" stroke-width="2" stroke-linecap="round" stroke-linejoin="round"/>
<path d="M28.1655 6.48438V8.15619" stroke="#1D1D1D" stroke-width="2" stroke-linecap="round" stroke-linejoin="round"/>
<path d="M28.1655 34.2188V49.2599" stroke="#1D1D1D" stroke-width="2" stroke-linecap="round" stroke-linejoin="round"/>
<path d="M48.4634 6.48438V8.49226" stroke="#1D1D1D" stroke-width="2" stroke-linecap="round" stroke-linejoin="round"/>
<path d="M33.2362 22.1094H28.1655V27.2105H33.2362V22.1094Z" stroke="#246BEB" stroke-width="2" stroke-linecap="round" stroke-linejoin="round"/>
<path d="M50.1866 12.1094H45.116V17.2105H50.1866V12.1094Z" stroke="#246BEB" stroke-width="2" stroke-linecap="round" stroke-linejoin="round"/>
<path d="M50.1866 22.1094H45.116V27.2105H50.1866V22.1094Z" stroke="#246BEB" stroke-width="2" stroke-linecap="round" stroke-linejoin="round"/>
<path d="M33.2363 24.6641H41.7465" stroke="#246BEB" stroke-width="2" stroke-linecap="round" stroke-linejoin="round"/>
<path d="M47.6523 22.1131V20.1875" stroke="#246BEB" stroke-width="2" stroke-linecap="round" stroke-linejoin="round"/>
<path d="M5.3501 5.99219H16.0726" stroke="#1D1D1D" stroke-width="2" stroke-linecap="round" stroke-linejoin="round"/>
<path d="M6.58081 5.90638C6.58081 3.61042 8.43011 1.75 10.7123 1.75C12.9946 1.75 14.8438 3.61042 14.8438 5.90638" stroke="#1D1D1D" stroke-width="2" stroke-linecap="round" stroke-linejoin="round"/>
<path d="M10.7122 0.734375V2.76798" stroke="#1D1D1D" stroke-width="2" stroke-linecap="round" stroke-linejoin="round"/>
</g>
<defs>
<clipPath id="clip0_1059_29053">
<rect width="55" height="50" fill="white"/>
</clipPath>
</defs>
</svg>
