<svg width="54" height="50" viewBox="0 0 54 50" fill="none" xmlns="http://www.w3.org/2000/svg">
<g clip-path="url(#clip0_1041_44857)">
<path d="M19.3133 8.44385H7.11328V20.5987H19.3133V8.44385Z" stroke="#1D1D1D" stroke-width="2" stroke-linejoin="round"/>
<path d="M15.0282 8.44385H11.3984V12.3269H15.0282V8.44385Z" stroke="#1D1D1D" stroke-width="2" stroke-linejoin="round"/>
<path d="M24.6084 11.3694H32.7435" stroke="#246BEB" stroke-width="2" stroke-linecap="round" stroke-linejoin="round"/>
<path d="M24.6084 17.6733H32.7435" stroke="#246BEB" stroke-width="2" stroke-linecap="round" stroke-linejoin="round"/>
<path d="M8.52246 28.5447L23.0773 28.5552" stroke="#246BEB" stroke-width="2" stroke-linecap="round" stroke-linejoin="round"/>
<path d="M8.52246 35.6331H23.0918" stroke="#246BEB" stroke-width="2" stroke-linecap="round" stroke-linejoin="round"/>
<path d="M38.5108 33.0412V49.4088H0.59375V0.591064H38.5108V17.383" stroke="#1D1D1D" stroke-width="2" stroke-linecap="round" stroke-linejoin="round"/>
<path d="M34.0461 33.1529L28.4834 35.5818L30.9213 30.0397L47.8823 13.1414L51.0071 16.2546L34.0461 33.1529Z" stroke="#1D1D1D" stroke-width="2" stroke-linecap="round" stroke-linejoin="round"/>
<path d="M51.0361 16.2991L52.7278 17.9831" stroke="#1D1D1D" stroke-width="2" stroke-linecap="round" stroke-linejoin="round"/>
<path d="M47.7285 22.9644L52.7282 17.9832" stroke="#1D1D1D" stroke-width="2" stroke-linecap="round" stroke-linejoin="round"/>
<path d="M49.5107 12.2887L51.0547 10.7505L53.4069 13.094L51.8629 14.6322" stroke="#1D1D1D" stroke-width="2" stroke-linecap="round" stroke-linejoin="round"/>
</g>
<defs>
<clipPath id="clip0_1041_44857">
<rect width="54" height="50" fill="white"/>
</clipPath>
</defs>
</svg>
