<svg width="296" height="60" viewBox="0 0 296 60" fill="none" xmlns="http://www.w3.org/2000/svg">
<g clip-path="url(#clip0_1650_78831)">
<path d="M76.8115 42.6905V31.6249H88.5452V42.6905H76.8115ZM77.464 52.1183V44.9169H80.3219V49.7434H96.0998V52.1183H77.464ZM85.7088 33.9537H79.6425V40.3873H85.7088V33.9537ZM93.0424 44.7992V31.0005H95.9003V44.7992H93.0424Z" fill="white"/>
<path d="M114.762 43.9391H108.771V47.2046H105.886V43.9391H99.6416V41.5848H114.762V43.9391ZM101.184 52.1692V46.0018H104.042V49.8405H119.642V52.1692H101.184ZM112.761 35.7295C112.761 36.4154 112.605 37.0603 112.292 37.6642C111.979 38.263 111.569 38.7953 111.068 39.2611C110.545 39.7115 109.941 40.0647 109.261 40.3308C108.577 40.597 107.843 40.7249 107.051 40.7249C106.258 40.7249 105.519 40.5918 104.84 40.3308C104.155 40.0647 103.556 39.7115 103.033 39.2611C102.526 38.7953 102.122 38.263 101.82 37.6642C101.518 37.0654 101.367 36.4205 101.367 35.7295C101.367 35.0386 101.518 34.3732 101.82 33.7744C102.122 33.1755 102.526 32.6432 103.033 32.1775C103.556 31.7475 104.16 31.3995 104.84 31.1334C105.525 30.8672 106.258 30.7393 107.051 30.7393C107.843 30.7393 108.582 30.8723 109.261 31.1334C109.946 31.3995 110.545 31.7475 111.068 32.1775C111.575 32.6432 111.985 33.1755 112.292 33.7744C112.605 34.3732 112.761 35.0283 112.761 35.7295ZM109.979 35.7295C109.979 34.9618 109.687 34.3118 109.105 33.7846C108.523 33.2574 107.838 32.9913 107.045 32.9913C106.253 32.9913 105.568 33.2574 104.996 33.7846C104.425 34.3118 104.139 34.9618 104.139 35.7295C104.139 36.4973 104.425 37.1217 104.996 37.6489C105.568 38.176 106.253 38.4422 107.045 38.4422C107.838 38.4422 108.523 38.176 109.105 37.6489C109.687 37.1217 109.979 36.4819 109.979 35.7295ZM116.53 31.0003H119.388V47.44H116.53V39.7371H113.37V37.4083H116.53V31.0003Z" fill="white"/>
<path d="M128.692 33.2827V30.9795H131.776V33.2827H137.19V35.5859H130.741L137.643 48.8114L135.265 49.7941L130.234 39.8596L125.23 49.963L122.776 48.9547L129.705 35.5859H123.057V33.2827H128.697H128.692ZM140.576 42.1628H136.203V39.7879H140.576V31.0051H143.434V52.5323H140.576V42.1628Z" fill="white"/>
<path d="M160.247 49.554H148.109V39.7373H157.136V34.6754H148.109V32.3466H159.994V42.0405H150.94V47.2252H160.247V49.554ZM164.346 31.0005H167.204V52.5277H164.346V31.0005Z" fill="white"/>
<path d="M177.924 31.1438L185.409 48.5457L182.853 49.6001L177.946 37.7668L173.066 49.769L170.488 48.6891L177.924 31.1438ZM188.116 31.0005H190.974V52.5277H188.116V31.0005Z" fill="white"/>
<path d="M215.696 48.5709V50.9458H194.812V48.5709H215.696ZM205.229 35.5143L197.696 44.7322L195.469 43.1507L205.229 31.3174L215.016 43.1507L212.789 44.7322L205.229 35.5143Z" fill="white"/>
<path d="M222.118 33.882V36.0419H228.136V38.2274H222.118V40.459H229.225V42.6188H219.363V33.882H217.848V31.6249H228.972V33.882H222.118ZM220.549 44.1287H238.754V52.1183H220.549V44.1287ZM235.923 46.4063H223.407V49.8151H235.923V46.4063ZM231.679 31.0261H234.386V42.8799H231.679V38.514H229.376V36.1648H231.679V31.0261ZM236.004 31.0005H238.759V43.0232H236.004V31.0005Z" fill="white"/>
<path d="M84.1354 16.086C84.1354 16.5364 84.033 16.9612 83.8334 17.3655C83.6339 17.7699 83.3589 18.123 83.0138 18.4301C82.6687 18.7372 82.2643 18.9727 81.8059 19.1364C81.6442 19.203 81.477 19.249 81.3045 19.2849V21.153H85.3595V22.7601H75.2812V21.153H79.3524V19.3002C79.1799 19.2593 79.0073 19.203 78.8348 19.1364C78.3764 18.9727 77.972 18.7372 77.6269 18.4301C77.2818 18.123 77.0122 17.7699 76.8181 17.3655C76.6239 16.9612 76.5269 16.5364 76.5269 16.086C76.5269 15.6356 76.6239 15.1954 76.8181 14.7911C77.0122 14.3867 77.2818 14.0387 77.6269 13.7418C77.972 13.4347 78.3764 13.1993 78.8348 13.0304C79.2931 12.8615 79.7838 12.7745 80.3015 12.7745C80.8191 12.7745 81.3422 12.8615 81.8005 13.0304C82.2589 13.1993 82.6633 13.4347 83.0084 13.7418C83.3535 14.0387 83.6285 14.3867 83.828 14.7911C84.0276 15.1954 84.13 15.6253 84.13 16.086H84.1354ZM79.2554 10.9575V9.38623H81.3799V10.9575H85.0198V12.5135H75.5994V10.9575H79.2554ZM82.2211 16.086C82.2211 15.5946 82.0378 15.1749 81.6711 14.832C81.3044 14.4891 80.8461 14.3151 80.3069 14.3151C79.7676 14.3151 79.347 14.4891 78.9858 14.832C78.6245 15.1749 78.4411 15.5946 78.4411 16.086C78.4411 16.5773 78.6245 16.9817 78.9858 17.3297C79.347 17.6777 79.7892 17.8518 80.3069 17.8518C80.8245 17.8518 81.3044 17.6777 81.6711 17.3297C82.0378 16.9817 82.2211 16.5671 82.2211 16.086ZM88.4654 24.1779H86.5134V9.4886H88.4654V15.825H90.4498V17.5447H88.4654V24.1779Z" fill="white"/>
<path d="M100.526 10.42V11.9759H91.4668V10.42H95.0042V9.17627H97.0748V10.42H100.526ZM92.1085 19.1619H104.327V24.0447H102.375V20.7844H92.1085V19.1619ZM99.6307 15.3949C99.6307 15.83 99.5337 16.2394 99.3396 16.6233C99.1454 17.0071 98.892 17.3347 98.5792 17.606C98.2449 17.8926 97.8675 18.1178 97.4415 18.2867C97.0155 18.4556 96.5464 18.5426 96.0287 18.5426C95.511 18.5426 95.0689 18.4556 94.6375 18.2867C94.2061 18.1178 93.8232 17.8926 93.4889 17.606C93.1654 17.3347 92.9119 17.0071 92.7232 16.6233C92.5345 16.2394 92.4374 15.83 92.4374 15.3949C92.4374 14.9599 92.5345 14.5658 92.7232 14.1819C92.9119 13.798 93.1708 13.4705 93.4889 13.1992C93.8232 12.9177 94.2061 12.6874 94.6375 12.5185C95.0689 12.3496 95.5326 12.2626 96.0287 12.2626C96.5248 12.2626 97.0155 12.3496 97.4415 12.5185C97.8675 12.6874 98.2449 12.9126 98.5792 13.1992C98.892 13.4705 99.14 13.798 99.3396 14.1819C99.5337 14.5658 99.6307 14.9701 99.6307 15.3949ZM97.765 15.3796C97.765 14.9445 97.5925 14.5709 97.2581 14.2587C96.9184 13.9465 96.5086 13.7929 96.0233 13.7929C95.538 13.7929 95.1713 13.9465 94.8424 14.2587C94.5135 14.5709 94.3517 14.9445 94.3517 15.3796C94.3517 15.8146 94.5135 16.2087 94.8424 16.5158C95.1713 16.828 95.565 16.9816 96.0233 16.9816C96.5086 16.9816 96.9184 16.828 97.2581 16.5158C97.5979 16.2036 97.765 15.8248 97.765 15.3796ZM104.322 18.343H102.37V9.48336H104.322V13.0866H106.549V14.8882H104.322V18.343Z" fill="white"/>
<path d="M114.106 17.821V16.8076H107.964V15.3029H122.216V16.8076H116.074V17.821H121.078V21.5369H111.037V22.4377H121.304V23.9271H109.107V20.1089H119.148V19.2593H109.107V17.8159H114.111L114.106 17.821ZM109.102 9.6626H121.078V14.3304H109.102V9.6626ZM119.148 11.1571H111.037V12.8615H119.148V11.1571Z" fill="white"/>
<path d="M124.134 11.4641V9.90821H133.053V11.4641H128.998L133.21 15.2619L131.932 16.3572L128.669 13.3118L125.445 16.4749L124.097 15.3591L128.27 11.459H124.129L124.134 11.4641ZM125.601 17.1505H137.782V21.1632H127.548V22.4069H137.955V23.8963H125.601V19.7864H135.836V18.5734H125.601V17.1505ZM135.83 9.4834H137.782V16.4442H135.83V9.4834Z" fill="white"/>
<path d="M140.354 11.4641V9.90821H149.273V11.4641H145.218L149.429 16.0501L148.049 17.084L144.911 13.5933L141.751 17.345L140.316 16.265L144.528 11.4641H140.354ZM152.552 21.373C152.552 21.8541 152.449 22.3045 152.239 22.7242C152.034 23.1439 151.748 23.5073 151.392 23.8144C151.036 24.142 150.621 24.3979 150.141 24.5821C149.661 24.7664 149.165 24.8585 148.648 24.8585C148.13 24.8585 147.612 24.7664 147.127 24.5821C146.642 24.3979 146.221 24.142 145.865 23.8144C145.509 23.5073 145.229 23.1439 145.029 22.7242C144.83 22.3045 144.727 21.8541 144.727 21.373C144.727 20.8919 144.83 20.4569 145.029 20.032C145.229 19.6072 145.509 19.2387 145.865 18.9368C146.221 18.6092 146.642 18.3533 147.127 18.169C147.24 18.1281 147.364 18.0871 147.488 18.0564V17.4832H149.785V18.0564C149.899 18.0871 150.023 18.1281 150.147 18.169C150.616 18.3533 151.031 18.6092 151.387 18.9368C151.743 19.2438 152.023 19.6072 152.233 20.032C152.444 20.4569 152.546 20.9073 152.546 21.373H152.552ZM150.653 21.373C150.653 20.8612 150.454 20.4108 150.05 20.032C149.645 19.6533 149.176 19.4588 148.637 19.4588C148.097 19.4588 147.645 19.6482 147.24 20.032C146.836 20.4159 146.636 20.8612 146.636 21.373C146.636 21.8848 146.836 22.3301 147.24 22.6986C147.645 23.0672 148.108 23.2565 148.637 23.2565C149.165 23.2565 149.65 23.0723 150.05 22.6986C150.449 22.325 150.653 21.8848 150.653 21.373ZM152.05 17.2784V14.2485H149.171V12.6772H152.05V9.4834H154.002V17.2784H152.05Z" fill="white"/>
<path d="M167.807 12.3648V10.1025H169.737V18.5067H164.733V21.4701H170.875V23.0926H156.623V21.4701H162.765V18.5067H157.761V10.1025H159.691V12.3648H167.807ZM167.807 16.9047V13.9566H159.697V16.9047H167.807Z" fill="white"/>
<path d="M192.271 15.6614V17.248H178.02V15.6614H183.509V13.2712H185.477V15.6614H192.277H192.271ZM189.149 14.6787V11.3723H179.125V9.78564H191.101V14.6838H189.149V14.6787ZM189.031 21.6036C189.031 22.0643 188.928 22.5044 188.718 22.9292C188.508 23.354 188.227 23.7072 187.871 23.9938C187.505 24.3214 187.089 24.5773 186.636 24.7616C186.183 24.9458 185.682 25.0379 185.143 25.0379C184.604 25.0379 184.118 24.9458 183.649 24.7616C183.185 24.5773 182.77 24.3214 182.414 23.9938C182.058 23.7072 181.778 23.354 181.568 22.9292C181.357 22.5044 181.255 22.0591 181.255 21.6036C181.255 21.1481 181.357 20.6926 181.568 20.278C181.773 19.8634 182.058 19.5051 182.414 19.1981C182.77 18.891 183.185 18.6453 183.654 18.461C183.757 18.4201 183.865 18.3791 183.983 18.3484V17.7752H186.281V18.3331C186.394 18.3791 186.518 18.4201 186.642 18.4661C187.089 18.6504 187.499 18.8961 187.866 19.2032C188.222 19.5103 188.502 19.8685 188.712 20.2831C188.917 20.6977 189.025 21.143 189.025 21.6087H189.031V21.6036ZM187.095 21.6036C187.095 21.0918 186.906 20.6516 186.523 20.2934C186.14 19.9351 185.682 19.7508 185.143 19.7508C184.604 19.7508 184.161 19.93 183.779 20.2934C183.401 20.6516 183.207 21.0918 183.207 21.6036C183.207 22.1154 183.396 22.5402 183.779 22.9036C184.156 23.267 184.614 23.4513 185.143 23.4513C185.671 23.4513 186.146 23.267 186.523 22.9036C186.901 22.5402 187.095 22.1052 187.095 21.6036Z" fill="white"/>
<path d="M197.589 11.2188V13.1535H207.393V14.6941H202.356V16.035H208.498V17.591H194.246V16.035H200.388V14.6941H195.643V11.2239H194.607V9.66797H207.36V11.2239H197.589V11.2188ZM205.144 21.7521C205.144 22.2025 205.041 22.6273 204.842 23.0316C204.642 23.436 204.362 23.784 204.006 24.0809C203.672 24.388 203.278 24.6234 202.825 24.7923C202.372 24.9612 201.887 25.0482 201.369 25.0482C200.852 25.0482 200.361 24.9612 199.903 24.7923C199.444 24.6234 199.051 24.388 198.727 24.0809C198.371 23.784 198.096 23.436 197.897 23.0316C197.703 22.6273 197.605 22.2025 197.605 21.7521C197.605 21.3017 197.703 20.882 197.897 20.4828C198.091 20.0835 198.366 19.7304 198.727 19.4284C199.051 19.1213 199.439 18.8808 199.903 18.7067L200.215 18.6095V18.0516H202.512V18.6095C202.615 18.6402 202.723 18.676 202.841 18.7067C203.289 18.8808 203.683 19.1213 204.017 19.4284C204.373 19.7355 204.653 20.0887 204.853 20.4828C205.052 20.882 205.155 21.3068 205.155 21.7521H205.144ZM203.23 21.7521C203.23 21.2812 203.041 20.8769 202.669 20.5339C202.297 20.191 201.86 20.017 201.364 20.017C200.868 20.017 200.436 20.191 200.07 20.5339C199.703 20.8769 199.52 21.2863 199.52 21.7521C199.52 22.2178 199.703 22.6427 200.07 22.9805C200.436 23.3183 200.868 23.4872 201.364 23.4872C201.86 23.4872 202.291 23.3183 202.669 22.9805C203.046 22.6427 203.23 22.2332 203.23 21.7521Z" fill="white"/>
<path d="M220.004 10.384V11.7608H218.122C218.273 11.9246 218.402 12.0986 218.521 12.2829C218.704 12.6105 218.796 12.9585 218.796 13.3321C218.796 13.7058 218.699 14.0538 218.51 14.3814C218.321 14.7089 218.068 14.9955 217.761 15.231C217.448 15.4715 217.087 15.6609 216.671 15.8042C216.531 15.8605 216.396 15.9015 216.256 15.9373V16.5105H220.327V17.918H210.217V16.5105H214.304V15.9219C214.191 15.8912 214.072 15.8503 213.959 15.8093C213.533 15.666 213.161 15.4767 212.837 15.2361C212.525 14.9955 212.277 14.714 212.093 14.3865C211.91 14.0589 211.818 13.7109 211.818 13.3372C211.818 12.9636 211.91 12.6156 212.093 12.288C212.196 12.1038 212.325 11.9297 212.471 11.7659H210.54V10.3891H214.25V9.09424H216.353V10.3891H220.004V10.384ZM211.322 18.6244H223.433V21.9H213.269V22.5398H223.606V23.932H211.322V20.5898H221.487V19.9858H211.322V18.6244ZM216.914 13.2861C216.914 12.8715 216.752 12.5183 216.429 12.2317C216.105 11.94 215.728 11.7967 215.291 11.7967C214.854 11.7967 214.498 11.94 214.186 12.2317C213.873 12.5234 213.722 12.8715 213.722 13.2861C213.722 13.7006 213.878 14.0487 214.186 14.3353C214.493 14.6219 214.865 14.7601 215.291 14.7601C215.717 14.7601 216.105 14.6168 216.429 14.3353C216.752 14.0538 216.914 13.7006 216.914 13.2861ZM223.439 18.0511H221.487V9.48322H223.439V13.153H225.391V14.7243H223.439V18.0511Z" fill="white"/>
<path d="M240.932 16.1831V17.7544H226.68V16.1831H229.543V14.8063H231.473V16.1831H236.132V14.8063H238.063V16.1831H240.932ZM237.653 12.1039C237.653 12.5543 237.551 12.9791 237.34 13.3835C237.135 13.7878 236.855 14.141 236.51 14.4481C236.154 14.7552 235.744 14.9957 235.286 15.1748C234.827 15.354 234.326 15.4461 233.787 15.4461C233.248 15.4461 232.778 15.354 232.32 15.1748C231.862 14.9957 231.452 14.75 231.096 14.4481C230.751 14.141 230.476 13.7878 230.276 13.3835C230.077 12.9791 229.974 12.5543 229.974 12.1039C229.974 11.6535 230.077 11.2133 230.276 10.809C230.476 10.4047 230.751 10.0515 231.096 9.74442C231.452 9.44756 231.862 9.21212 232.32 9.03298C232.778 8.85385 233.269 8.76172 233.787 8.76172C234.304 8.76172 234.827 8.85385 235.286 9.03298C235.744 9.21212 236.154 9.45268 236.51 9.74442C236.855 10.0515 237.13 10.4047 237.34 10.809C237.545 11.2133 237.653 11.6433 237.653 12.1039ZM237.534 21.8183C237.534 22.2533 237.432 22.6679 237.232 23.062C237.033 23.4561 236.758 23.7939 236.413 24.0754C236.078 24.3825 235.69 24.618 235.237 24.7869C234.79 24.9558 234.31 25.0428 233.803 25.0428C233.296 25.0428 232.822 24.9558 232.379 24.7869C231.937 24.618 231.538 24.3876 231.182 24.0908C230.848 23.7939 230.584 23.451 230.39 23.0569C230.195 22.6628 230.098 22.2482 230.098 21.8132C230.098 21.3781 230.195 20.9789 230.39 20.5848C230.584 20.1907 230.853 19.8478 231.198 19.5509C231.544 19.2438 231.943 19.0033 232.39 18.8293C232.471 18.7985 232.557 18.7678 232.649 18.7474V18.1741H234.946V18.7474C235.049 18.7678 235.146 18.7985 235.237 18.8293C235.685 19.0033 236.078 19.2438 236.413 19.5509C236.758 19.8478 237.033 20.1907 237.232 20.5848C237.432 20.9789 237.534 21.3884 237.534 21.8132V21.8183ZM235.706 12.1039C235.706 11.5921 235.523 11.1622 235.156 10.8192C234.79 10.4763 234.331 10.3023 233.792 10.3023C233.253 10.3023 232.832 10.4763 232.466 10.8192C232.099 11.1622 231.916 11.5921 231.916 12.1039C231.916 12.6157 232.099 13.0303 232.466 13.3732C232.832 13.7162 233.274 13.8902 233.792 13.8902C234.31 13.8902 234.79 13.7162 235.156 13.3732C235.523 13.0303 235.706 12.6055 235.706 12.1039ZM235.582 21.8183C235.582 21.3474 235.41 20.9533 235.065 20.6309C234.72 20.3084 234.299 20.1498 233.803 20.1498C233.307 20.1498 232.886 20.3135 232.541 20.6309C232.196 20.9533 232.023 21.3474 232.023 21.8183C232.023 22.2892 232.196 22.6986 232.541 23.016C232.886 23.3333 233.307 23.492 233.803 23.492C234.299 23.492 234.72 23.3333 235.065 23.016C235.41 22.6986 235.582 22.2994 235.582 21.8183Z" fill="white"/>
<path d="M262.328 17.0175H248.076V15.5281H262.328V17.0175ZM249.041 9.6626H261.379V11.152H259.325V13.0867H261.379V14.5607H249.041V13.0867H251.08V11.152H249.041V9.6626ZM249.214 17.9336H261.19V21.588H251.15V22.4377H261.417V23.9271H249.219V20.1754H259.26V19.3872H249.219V17.9285H249.214V17.9336ZM257.426 11.1571H252.972V13.0918H257.426V11.1571Z" fill="white"/>
<path d="M271.528 17.8517H264.572V13.1327H269.474V11.4437H264.572V9.90309H271.356V14.6221H266.454V16.3418H271.528V17.8466V17.8517ZM271.852 18.5734L278.22 23.0109L276.996 24.3211L271.836 20.7179L266.659 24.3211L265.419 23.0109L271.857 18.5734H271.852ZM276.187 9.4834H278.069V18.2611H276.187V14.7091H274.634V18.1639H272.769V9.49875H274.634V13.0201H276.187V9.4834Z" fill="white"/>
<path d="M281.483 9.6626H293.82V11.2339H291.766V13.4296H293.82V14.9855H288.628V16.3265H294.769V17.9132H280.518V16.3265H286.659V14.9855H281.483V13.4296H283.521V11.2339H281.483V9.6626ZM281.655 19.0187H293.632V23.9322H281.655V19.0187ZM291.701 20.5746H283.591V22.3609H291.701V20.5746ZM289.868 11.239H285.414V13.4347H289.868V11.239Z" fill="white"/>
<path d="M46.9871 29.2245C42.3443 26.2304 36.3966 27.4485 33.2745 31.9577C30.6646 35.7247 26.7282 36.1904 25.2022 36.1904C20.2359 36.1904 16.8334 32.8738 15.825 29.4395C15.8196 29.4037 15.8088 29.3781 15.798 29.3423C15.7926 29.3064 15.7765 29.2655 15.7657 29.2245C15.372 27.7914 15.275 27.1056 15.275 25.5855C15.275 17.3759 24.1507 8.23471 36.9305 8.23471C49.7102 8.23471 57.5075 17.6932 59.438 22.9496C59.4056 22.8575 59.3732 22.7653 59.3409 22.6732C55.6256 12.3907 45.3586 5 33.2637 5C18.0412 5 5.69824 16.7105 5.69824 31.1592C5.69824 44.0725 15.5122 55.1278 29.1224 55.1278C39.9771 55.1278 47.2783 49.3494 50.6215 41.3854C52.4549 37.0298 51.1554 31.9116 46.9871 29.2245Z" fill="#003763"/>
<path d="M59.5992 23.4613C57.9869 18.3329 50.4431 8.23975 36.9192 8.23975C24.1394 8.23975 15.2637 17.3809 15.2637 25.5905C15.2637 27.1157 15.3607 27.7965 15.7544 29.2296C15.5872 28.6051 15.5009 27.9756 15.5009 27.3614C15.5009 18.814 24.5223 12.8871 33.7916 12.8871C46.3449 12.8871 56.5202 22.5452 56.5202 34.4553C56.5202 43.7909 50.8583 51.8726 42.6296 55.7573C53.2363 52.1182 60.8071 42.4806 60.8071 31.1591C60.8071 28.4823 60.4296 26.1177 59.5938 23.4613H59.5992Z" fill="#E4022D"/>
</g>
<defs>
<clipPath id="clip0_1650_78831">
<rect width="296" height="52" fill="white" transform="translate(0 4)"/>
</clipPath>
</defs>
</svg>
