<svg xmlns="http://www.w3.org/2000/svg">
    <symbol id="ico-down" viewBox="0 0 20 20">
        <path d="M3.2002 15.8003H16.7998V13.5005H18.2002V16.5005C18.1999 16.8869 17.8864 17.2007 17.5 17.2007H2.5C2.11356 17.2007 1.80007 16.8869 1.7998 16.5005V13.5005H3.2002V15.8003ZM10.7002 11.2476L13.9365 8.01123L14.9268 9.00146L10 13.9272L5.07422 9.00146L6.06348 8.01221L9.2998 11.2476V2.15771H10.7002V11.2476Z" fill="currentColor"/>
    </symbol>
    
    <!-- GNB 아이콘 : 접수 -->
    <symbol id="ico-gnb-reception" viewBox="0 0 24 24">
        <path d="M8 17C8.55228 17 9 17.4477 9 18C9 18.5523 8.55228 19 8 19H7C6.44772 19 6 18.5523 6 18C6 17.4477 6.44772 17 7 17H8ZM20 11.124C20 10.8259 19.8817 10.5399 19.6709 10.3291C19.4601 10.1183 19.1741 10 18.876 10C18.6149 10 18.3632 10.0907 18.1631 10.2549L18.0811 10.3291L14.0713 14.3408C13.9524 14.4596 13.8655 14.6072 13.8184 14.7686L13.2363 16.7617L15.2305 16.1807C15.3918 16.1336 15.5384 16.0466 15.6572 15.9277H15.6582L19.6709 11.9189L19.7451 11.8369C19.9093 11.6368 20 11.3851 20 11.124ZM8 3V5H14V3H8ZM22 11.124C22 11.9007 21.7111 12.6477 21.1924 13.2207L21.085 13.333L17.0713 17.3428C16.7596 17.6543 16.3837 17.8926 15.9707 18.042L15.791 18.1006L12.9209 18.9385C12.6629 19.0137 12.3893 19.0178 12.1289 18.9512C11.8684 18.8844 11.6306 18.7487 11.4404 18.5586C11.2503 18.3685 11.1146 18.1306 11.0479 17.8701C10.9812 17.6098 10.9853 17.3361 11.0605 17.0781L11.8984 14.208L11.957 14.0283C12.1065 13.6151 12.3444 13.2385 12.6562 12.9268L16.667 8.91504L16.7793 8.80762C17.3523 8.28887 18.0993 8.00001 18.876 8C19.7046 8 20.4991 8.32915 21.085 8.91504C21.6709 9.50093 22 10.2954 22 11.124ZM17.001 3C17.5269 3.00054 18.0436 3.13919 18.499 3.40234C18.9544 3.66559 19.3327 4.04446 19.5957 4.5C19.8718 4.9782 19.7086 5.58999 19.2305 5.86621C18.7522 6.14233 18.1404 5.9782 17.8643 5.5C17.7766 5.34813 17.6499 5.22155 17.498 5.13379C17.3844 5.06816 17.2592 5.026 17.1299 5.00879L16.999 5H16C16 6.10457 15.1046 7 14 7H8C6.89543 7 6 6.10457 6 5H5C4.73478 5 4.4805 5.10543 4.29297 5.29297C4.10543 5.4805 4 5.73478 4 6V20C4 20.2652 4.10543 20.5195 4.29297 20.707C4.48051 20.8946 4.73478 21 5 21H17C17.2652 21 17.5195 20.8946 17.707 20.707C17.8946 20.5195 18 20.2652 18 20V19.5C18 18.9477 18.4477 18.5 19 18.5C19.5523 18.5 20 18.9477 20 19.5V20C20 20.7957 19.6837 21.5585 19.1211 22.1211C18.5585 22.6837 17.7957 23 17 23H5C4.20435 23 3.44152 22.6837 2.87891 22.1211C2.3163 21.5585 2 20.7957 2 20V6C2 5.20435 2.3163 4.44152 2.87891 3.87891C3.44152 3.3163 4.20435 3 5 3H6C6 1.89543 6.89543 1 8 1H14C15.1046 1 16 1.89543 16 3H17.001Z" fill="currentColor"/>
    </symbol>
    
    <!-- GNB 아이콘 : 면제 -->
    <symbol id="ico-gnb-exemption" viewBox="0 0 24 24">
        <path d="M3 20V4C3 3.20435 3.3163 2.44151 3.87891 1.87891C4.44152 1.3163 5.20435 1 6 1H14C14.448 0.999224 14.8916 1.08748 15.3057 1.25879C15.7199 1.43023 16.0965 1.68159 16.4131 1.99902L20 5.58594L20.1162 5.70703C20.3799 5.99708 20.591 6.33138 20.7412 6.69434C20.9125 7.10835 21.0008 7.55195 21 8V13C21 13.5523 20.5523 14 20 14C19.4477 14 19 13.5523 19 13V9H15C14.4696 9 13.961 8.78913 13.5859 8.41406C13.2109 8.03899 13 7.53043 13 7V3H6C5.73478 3 5.4805 3.10543 5.29297 3.29297C5.10543 3.4805 5 3.73479 5 4V20C5 20.2652 5.10543 20.5195 5.29297 20.707C5.48051 20.8946 5.73478 21 6 21H11C11.5523 21 12 21.4477 12 22C12 22.5523 11.5523 23 11 23H6C5.20435 23 4.44152 22.6837 3.87891 22.1211C3.3163 21.5585 3 20.7956 3 20ZM19.293 16.293C19.6835 15.9024 20.3165 15.9024 20.707 16.293C21.0976 16.6835 21.0976 17.3165 20.707 17.707L18.9141 19.5L20.707 21.293C21.0976 21.6835 21.0976 22.3165 20.707 22.707C20.3165 23.0976 19.6835 23.0976 19.293 22.707L17.5 20.9141L15.707 22.707C15.3165 23.0976 14.6835 23.0976 14.293 22.707C13.9024 22.3165 13.9024 21.6835 14.293 21.293L16.0859 19.5L14.293 17.707C13.9024 17.3165 13.9024 16.6835 14.293 16.293C14.6835 15.9024 15.3165 15.9024 15.707 16.293L17.5 18.0859L19.293 16.293ZM18.5859 7L15 3.41406V7H18.5859Z" fill="currentColor"/>
    </symbol>
    
    <!-- GNB 아이콘 : 기존화학물질등록 -->
    <symbol id="ico-gnb-existing-chemicals" viewBox="0 0 24 24">
        <path d="M19 5.99878C16.6805 5.99878 13.9706 4.66218 12.1104 3.03882C12.0796 3.01273 12.0403 2.99878 12 2.99878C11.9595 2.99878 11.9204 3.0135 11.8896 3.03979L11.8887 3.03882C10.0393 4.65122 7.32008 5.99878 5 5.99878V12.9988C5 15.2345 5.7706 16.8599 6.98633 18.1052C8.22945 19.3784 9.98355 20.2989 11.9961 20.9939C12.0034 20.9964 12.0113 20.9981 12.0186 21.0007C14.0236 20.301 15.7728 19.3803 17.0137 18.1072C18.229 16.8603 19 15.2346 19 12.9988V5.99878ZM12.0098 14.9988C12.5619 14.9988 13.0095 15.4467 13.0098 15.9988C13.0098 16.5511 12.5621 16.9988 12.0098 16.9988H12C11.4477 16.9988 11 16.5511 11 15.9988C11.0002 15.4467 11.4479 14.9988 12 14.9988H12.0098ZM11 11.9988V7.99878C11.0002 7.4467 11.4479 6.99878 12 6.99878C12.5521 6.99878 12.9998 7.4467 13 7.99878V11.9988C13 12.5511 12.5523 12.9988 12 12.9988C11.4477 12.9988 11 12.5511 11 11.9988ZM21 12.9988C21 15.7629 20.021 17.8881 18.4463 19.5037C16.8988 21.0913 14.8204 22.1434 12.6689 22.8933L12.6611 22.8962C12.233 23.0413 11.7688 23.0361 11.3438 22.8835V22.8845C11.3379 22.8825 11.3321 22.8797 11.3262 22.8777C11.3246 22.8771 11.3228 22.8773 11.3213 22.8767V22.8757C9.17204 22.1312 7.09956 21.0839 5.55566 19.5027C3.97919 17.8881 3 15.7628 3 12.9988V5.99878C3.00012 5.46851 3.21097 4.95968 3.58594 4.58472C3.96099 4.20979 4.46967 3.99878 5 3.99878C6.67637 3.99878 8.95154 2.95044 10.582 1.52612L10.5908 1.51929C10.9837 1.18361 11.4832 0.998779 12 0.998779C12.5168 0.998779 13.0163 1.18361 13.4092 1.51929L13.418 1.52612C15.0575 2.95953 17.3229 3.99878 19 3.99878C19.5303 3.99878 20.039 4.20978 20.4141 4.58472C20.789 4.95968 20.9999 5.46851 21 5.99878V12.9988Z" fill="currentColor"/>
    </symbol>
    
    <!-- GNB 아이콘 : 등록대상기존화학물질 -->
    <symbol id="ico-gnb-targeted-chemicals" viewBox="0 0 24 24">
        <path d="M1.29302 1.29297C1.68354 0.902444 2.31655 0.902444 2.70708 1.29297L22.7071 21.293C23.0976 21.6835 23.0976 22.3165 22.7071 22.707C22.3166 23.0976 21.6835 23.0976 21.293 22.707L20.3907 21.8047C20.3075 21.9149 20.2199 22.0224 20.1211 22.1211C19.5585 22.6837 18.7957 23 18 23H6.00005C5.47929 23.0001 4.96721 22.8642 4.51469 22.6064C4.06234 22.3487 3.68453 21.9781 3.41899 21.5303C3.15337 21.0823 3.00904 20.5725 3.00005 20.0518C2.99106 19.531 3.11822 19.0165 3.36821 18.5596L8.23637 9.65039L1.29302 2.70703C0.902491 2.31651 0.902491 1.68349 1.29302 1.29297ZM5.12212 19.5195C5.03878 19.6718 4.99705 19.844 5.00005 20.0176C5.0031 20.191 5.05122 20.3605 5.1397 20.5098C5.22824 20.6591 5.35407 20.7832 5.50493 20.8691C5.65573 20.955 5.82653 21 6.00005 21H18C18.2653 21 18.5195 20.8946 18.7071 20.707C18.8093 20.6048 18.886 20.4824 18.9356 20.3496L14.586 16H7.04595L5.12212 19.5195ZM8.1397 14H12.586L9.71098 11.125L8.1397 14ZM9.00005 4.34277V3H8.50005C7.94776 3 7.50005 2.55228 7.50005 2C7.50005 1.44772 7.94776 1 8.50005 1H15.5C16.0523 1 16.5 1.44772 16.5 2C16.5 2.55228 16.0523 3 15.5 3H15V8.34277C15 8.89506 14.5523 9.34277 14 9.34277C13.4478 9.34277 13 8.89506 13 8.34277V3H11V4.34277C11 4.89506 10.5523 5.34277 10 5.34277C9.44776 5.34277 9.00005 4.89506 9.00005 4.34277Z" fill="currentColor"/>
    </symbol>
    
    <!-- GNB 아이콘 : 중점관리물질 -->
    <symbol id="ico-gnb-priority-substances" viewBox="0 0 24 24">
        <path d="M2 19V17C2 16.4477 2.44772 16 3 16C3.55228 16 4 16.4477 4 17V19C4 19.2652 4.10543 19.5195 4.29297 19.707C4.48051 19.8946 4.73478 20 5 20H7C7.55228 20 8 20.4477 8 21C8 21.5523 7.55228 22 7 22H5C4.20435 22 3.44152 21.6837 2.87891 21.1211C2.3163 20.5585 2 19.7957 2 19ZM20 19V17C20 16.4477 20.4477 16 21 16C21.5523 16 22 16.4477 22 17V19C22 19.7957 21.6837 20.5585 21.1211 21.1211C20.5585 21.6837 19.7957 22 19 22H17C16.4477 22 16 21.5523 16 21C16 20.4477 16.4477 20 17 20H19C19.2652 20 19.5195 19.8946 19.707 19.707C19.8946 19.5195 20 19.2652 20 19ZM12 6.00391C13.6887 6.00391 15.3396 6.50736 16.7412 7.44922C18.0551 8.33225 19.0946 9.56327 19.7451 11.002L19.8701 11.292L19.8877 11.3398C20.0371 11.7672 20.0371 12.2328 19.8877 12.6602C19.8821 12.6762 19.8765 12.6923 19.8701 12.708C19.2321 14.2713 18.1426 15.6089 16.7412 16.5508C15.3396 17.4926 13.6887 17.9961 12 17.9961C10.3113 17.9961 8.66044 17.4926 7.25879 16.5508C5.85739 15.6089 4.76789 14.2713 4.12988 12.708C4.12347 12.6923 4.11791 12.6762 4.1123 12.6602C3.96292 12.2328 3.96292 11.7672 4.1123 11.3398L4.12988 11.292C4.76789 9.72868 5.85739 8.39105 7.25879 7.44922C8.66044 6.50736 10.3113 6.00391 12 6.00391ZM12 8.00391C10.7088 8.00391 9.44677 8.38832 8.375 9.1084C7.31751 9.81899 6.49246 10.825 6.00195 12C6.49246 13.175 7.31751 14.181 8.375 14.8916C9.44677 15.6117 10.7088 15.9961 12 15.9961C13.2912 15.9961 14.5532 15.6117 15.625 14.8916C16.6824 14.1811 17.5065 13.1749 17.9971 12C17.5065 10.8251 16.6824 9.81892 15.625 9.1084C14.5532 8.38832 13.2912 8.00391 12 8.00391ZM10 12C10 10.8954 10.8954 10 12 10C13.1046 10 14 10.8954 14 12C14 13.1046 13.1046 14 12 14C10.8954 14 10 13.1046 10 12ZM2 7V5C2 4.20435 2.3163 3.44152 2.87891 2.87891C3.44152 2.3163 4.20435 2 5 2H7C7.55228 2 8 2.44772 8 3C8 3.55228 7.55228 4 7 4H5C4.73478 4 4.4805 4.10543 4.29297 4.29297C4.10543 4.4805 4 4.73478 4 5V7C4 7.55228 3.55228 8 3 8C2.44772 8 2 7.55228 2 7ZM20 7V5C20 4.73478 19.8946 4.48051 19.707 4.29297C19.5195 4.10543 19.2652 4 19 4H17C16.4477 4 16 3.55228 16 3C16 2.44772 16.4477 2 17 2H19C19.7957 2 20.5585 2.3163 21.1211 2.87891C21.6837 3.44152 22 4.20435 22 5V7C22 7.55228 21.5523 8 21 8C20.4477 8 20 7.55228 20 7Z" fill="currentColor"/>
    </symbol>
    
    <!-- GNB 아이콘 : 민원관리 -->
    <symbol id="ico-gnb-civil-affairs" viewBox="0 0 24 24">
        <path d="M15 4.00195C15 3.73674 14.8946 3.48246 14.707 3.29492C14.5195 3.10739 14.2652 3.00195 14 3.00195H4C3.73478 3.00195 3.4805 3.10739 3.29297 3.29492C3.10543 3.48246 3 3.73674 3 4.00195V13.5879L4.70703 11.8809L4.92676 11.6816C5.46048 11.2442 6.13198 11.0021 6.82812 11.002H14C14.2652 11.002 14.5195 10.8965 14.707 10.709C14.8946 10.5214 15 10.2672 15 10.002V4.00195ZM23 21.2881C23 21.6263 22.8998 21.9571 22.7119 22.2383C22.524 22.5194 22.2567 22.7388 21.9443 22.8682C21.632 22.9975 21.2877 23.0308 20.9561 22.9648C20.666 22.9071 20.3968 22.7751 20.1738 22.583L20.0811 22.4971L17.8789 20.2949C17.7148 20.1308 17.4994 20.0296 17.2705 20.0068L17.1719 20.002H10C9.20435 20.002 8.44151 19.6857 7.87891 19.123C7.3163 18.5604 7 17.7976 7 17.002V16.002C7 15.4497 7.44772 15.002 8 15.002C8.55228 15.002 9 15.4497 9 16.002V17.002C9 17.2672 9.10543 17.5214 9.29297 17.709C9.48051 17.8965 9.73478 18.002 10 18.002H17.1719C17.9674 18.0021 18.7305 18.3183 19.293 18.8809L21 20.5879V11.002C21 10.7367 20.8946 10.4825 20.707 10.2949C20.5195 10.1074 20.2652 10.002 20 10.002C19.4477 10.002 19 9.55424 19 9.00195C19 8.44967 19.4477 8.00195 20 8.00195C20.7957 8.00195 21.5585 8.31825 22.1211 8.88086C22.6837 9.44347 23 10.2063 23 11.002V21.2881ZM17 10.002C17 10.7976 16.6837 11.5604 16.1211 12.123C15.5585 12.6857 14.7957 13.002 14 13.002H6.82812C6.56296 13.002 6.30857 13.1074 6.12109 13.2949L3.91895 15.4971C3.6799 15.7361 3.37545 15.8988 3.04395 15.9648C2.71233 16.0308 2.36805 15.9975 2.05566 15.8682C1.74327 15.7388 1.47598 15.5194 1.28809 15.2383C1.10019 14.9571 1.00004 14.6263 1 14.2881V4.00195C1 3.2063 1.3163 2.44347 1.87891 1.88086C2.44152 1.31825 3.20435 1.00195 4 1.00195H14C14.7956 1.00195 15.5585 1.31825 16.1211 1.88086C16.6837 2.44347 17 3.2063 17 4.00195V10.002Z" fill="currentColor"/>
    </symbol>
    
    <!-- GNB 아이콘 : 통계 -->
    <symbol id="ico-gnb-statistics" viewBox="0 0 24 24">
        <path d="M2 19V3C2 2.44772 2.44772 2 3 2C3.55228 2 4 2.44772 4 3V19C4 19.2652 4.10543 19.5195 4.29297 19.707C4.48051 19.8946 4.73478 20 5 20H21C21.5523 20 22 20.4477 22 21C22 21.5523 21.5523 22 21 22H5C4.20435 22 3.44152 21.6837 2.87891 21.1211C2.3163 20.5585 2 19.7957 2 19ZM8 14V16H15V14H8ZM8 6V8H18V6H8ZM17 16C17 17.1046 16.1046 18 15 18H8C6.89543 18 6 17.1046 6 16V14C6 12.8954 6.89543 12 8 12H15C16.1046 12 17 12.8954 17 14V16ZM20 8C20 9.10457 19.1046 10 18 10H8C6.89543 10 6 9.10457 6 8V6C6 4.89543 6.89543 4 8 4H18C19.1046 4 20 4.89543 20 6V8Z" fill="currentColor"/>
    </symbol>
    
    <!-- GNB 아이콘 : 운영관리 -->
    <symbol id="ico-gnb-operations" viewBox="0 0 24 24">
        <path d="M1 15.3482V5.34818C1 4.55253 1.3163 3.78872 1.87891 3.22611C2.44148 2.66372 3.20451 2.34818 4 2.34818H11C11.5523 2.34818 12 2.7959 12 3.34818C11.9998 3.90034 11.5522 4.34818 11 4.34818H4C3.73478 4.34818 3.4805 4.45362 3.29297 4.64115C3.10552 4.82867 3 5.08303 3 5.34818V15.3482C3.00008 15.6133 3.1055 15.8677 3.29297 16.0552C3.48049 16.2427 3.73485 16.3482 4 16.3482H20C20.2651 16.3482 20.5195 16.2427 20.707 16.0552C20.8945 15.8677 20.9999 15.6133 21 15.3482V13.3482C21 12.7959 21.4477 12.3482 22 12.3482C22.5523 12.3482 23 12.7959 23 13.3482V15.3482C22.9999 16.1437 22.6836 16.9067 22.1211 17.4693C21.5585 18.0318 20.7956 18.3482 20 18.3482H13V20.3482H16C16.5523 20.3482 17 20.7959 17 21.3482C16.9998 21.9003 16.5522 22.3482 16 22.3482H8C7.44781 22.3482 7.00016 21.9003 7 21.3482C7 20.7959 7.44772 20.3482 8 20.3482H11V18.3482H4C3.20442 18.3482 2.4415 18.0318 1.87891 17.4693C1.31637 16.9067 1.00008 16.1437 1 15.3482ZM20 6.34818C20 5.24361 19.1046 4.34818 18 4.34818C16.8954 4.34818 16 5.24361 16 6.34818C16.0002 7.45262 16.8955 8.34818 18 8.34818C19.1045 8.34818 19.9998 7.45262 20 6.34818ZM22 6.34818C22 6.53715 21.9853 6.72284 21.96 6.90482L22.0791 6.95463C22.5893 7.16611 22.8316 7.75205 22.6201 8.26225C22.4086 8.7722 21.8235 9.01358 21.3135 8.80229L21.1943 8.75248C20.9691 9.05128 20.7041 9.31823 20.4053 9.5435L20.4541 9.66166C20.6651 10.172 20.4225 10.7573 19.9121 10.9683C19.4018 11.1792 18.8165 10.9366 18.6055 10.4263L18.5566 10.3081C18.3747 10.3335 18.189 10.3482 18 10.3482C17.8101 10.3482 17.6233 10.3338 17.4404 10.3081L17.3926 10.4263C17.1809 10.9363 16.596 11.1779 16.0859 10.9663C15.5759 10.7547 15.3334 10.1698 15.5449 9.65971L15.5928 9.54252C15.2947 9.31756 15.0295 9.05162 14.8047 8.75346L14.6875 8.80229C14.1772 9.01344 13.5921 8.77058 13.3809 8.26029C13.1697 7.75 13.4126 7.16484 13.9229 6.95365L14.0391 6.90482C14.0137 6.72288 14 6.5371 14 6.34818C14 6.15837 14.0135 5.97138 14.0391 5.78861L13.9219 5.74076C13.4118 5.52909 13.1702 4.94326 13.3818 4.43314C13.5937 3.92343 14.1786 3.68151 14.6885 3.89311L14.8047 3.94096C15.0295 3.64292 15.2947 3.37673 15.5928 3.15189L15.5449 3.03471C15.3336 2.5246 15.5759 1.93956 16.0859 1.72807C16.5961 1.51659 17.1811 1.75889 17.3926 2.26908L17.4414 2.38822C17.624 2.3627 17.8104 2.34818 18 2.34818C18.1893 2.34818 18.3753 2.36278 18.5576 2.38822L18.6074 2.26908C18.8189 1.75889 19.4039 1.51659 19.9141 1.72807C20.4241 1.93956 20.6664 2.5246 20.4551 3.03471L20.4062 3.15189C20.7046 3.37687 20.9693 3.64363 21.1943 3.94193L21.3135 3.89311C21.8236 3.68187 22.4087 3.92404 22.6201 4.43412C22.8314 4.94421 22.5891 5.52927 22.0791 5.74076L21.96 5.78959C21.9855 5.9721 22 6.15865 22 6.34818Z" fill="currentColor"/>
    </symbol>
    
    <!-- GNB 아이콘 : 화학물질정보관리 -->
    <symbol id="ico-gnb-chemical-info" viewBox="0 0 24 24">
        <path d="M19.6427 11.4797C19.9269 11.0062 20.5412 10.8528 21.0148 11.137C21.4883 11.4211 21.6417 12.0355 21.3576 12.509L19.2667 15.9944H21.5001C21.8603 15.9944 22.1927 16.188 22.3703 16.5012C22.5478 16.8147 22.5429 17.2001 22.3576 17.509L19.3576 22.509C19.0734 22.9825 18.459 23.1359 17.9855 22.8518C17.5121 22.5676 17.3586 21.9533 17.6427 21.4797L19.7335 17.9944H17.5001C17.14 17.9944 16.8076 17.8008 16.63 17.4875C16.4525 17.174 16.4574 16.7887 16.6427 16.4797L19.6427 11.4797ZM19.4972 4.97876C19.4938 4.96755 19.485 4.94591 19.465 4.91333C19.4226 4.84422 19.336 4.74026 19.174 4.61255C18.8438 4.35234 18.3041 4.07357 17.548 3.82153C16.0462 3.32095 13.9078 2.99438 11.5001 2.99438C9.09246 2.99439 6.95403 3.32095 5.45229 3.82153C4.69624 4.07356 4.15648 4.35235 3.82631 4.61255C3.66436 4.74023 3.57771 4.84423 3.5353 4.91333C3.51532 4.94592 3.5065 4.96757 3.50307 4.97876C3.49992 4.98911 3.50014 4.99366 3.50014 4.99438C3.50014 4.99511 3.49992 4.99966 3.50307 5.01001C3.5065 5.0212 3.51532 5.04285 3.5353 5.07544C3.57771 5.14454 3.66436 5.24854 3.82631 5.37622C4.15648 5.63642 4.69624 5.91521 5.45229 6.16724C6.95403 6.66782 9.09246 6.99438 11.5001 6.99438C13.9078 6.99438 16.0462 6.66782 17.548 6.16724C18.3041 5.9152 18.8438 5.63643 19.174 5.37622C19.336 5.24851 19.4226 5.14455 19.465 5.07544C19.485 5.04285 19.4938 5.02122 19.4972 5.01001C19.5004 4.99966 19.5001 4.99511 19.5001 4.99438C19.5001 4.99366 19.5004 4.98911 19.4972 4.97876ZM21.5001 7.99438C21.5001 8.54667 21.0524 8.99438 20.5001 8.99438C19.9479 8.99435 19.5001 8.54665 19.5001 7.99438V7.5188C19.0988 7.72411 18.6542 7.90689 18.1808 8.0647C16.4252 8.6499 14.063 8.99438 11.5001 8.99438C8.93755 8.99438 6.57599 8.6498 4.82045 8.0647C4.34693 7.90686 3.90161 7.72417 3.50014 7.5188V11.9934C3.50053 11.9956 3.50214 12.0009 3.50502 12.009C3.51086 12.0255 3.52517 12.0577 3.55873 12.1047C3.62897 12.2031 3.76702 12.3437 4.01381 12.5071C4.51257 12.8372 5.30585 13.1646 6.37319 13.429C7.42928 13.6905 8.67354 13.8697 10.005 13.9475C11.3351 14.0252 12.701 13.9985 13.9904 13.8694C14.5399 13.8143 15.0301 14.2154 15.0851 14.7649C15.1401 15.3144 14.7391 15.8046 14.1896 15.8596C12.7926 15.9995 11.3206 16.0283 9.88784 15.9446C8.45636 15.8609 7.08837 15.6664 5.89272 15.3704C4.99052 15.147 4.17511 14.8609 3.50014 14.5149V19.0081C3.50047 19.01 3.50214 19.0154 3.50502 19.0237C3.51092 19.0403 3.52517 19.0733 3.55971 19.1213C3.63324 19.2235 3.77881 19.3694 4.0392 19.5383C4.56528 19.8795 5.40162 20.2141 6.51967 20.4788C7.62598 20.7406 8.92403 20.9136 10.3019 20.9778C11.6785 21.0419 13.0794 20.9947 14.383 20.8411C14.9313 20.7764 15.4285 21.1687 15.4933 21.717C15.5579 22.2655 15.1658 22.7627 14.6173 22.8274C13.2005 22.9944 11.6892 23.0448 10.2081 22.9758C8.72844 22.9069 7.30606 22.72 6.05971 22.425C4.8252 22.1329 3.74423 21.7303 2.95131 21.2161C2.19222 20.7237 1.48856 19.9826 1.50014 18.9827V4.99438C1.50014 4.14259 2.01875 3.48999 2.58803 3.04126C3.1687 2.58364 3.94788 2.21493 4.82045 1.92407C6.57599 1.33897 8.93755 0.994391 11.5001 0.994385C14.063 0.994385 16.4252 1.33887 18.1808 1.92407C19.0533 2.21492 19.8316 2.58369 20.4123 3.04126C20.9816 3.48999 21.5001 4.14255 21.5001 4.99438V7.99438Z" fill="currentColor"/>
    </symbol>
    
    <!-- GNB 아이콘 : 시험자료 -->
    <symbol id="ico-gnb-test-data" viewBox="0 0 24 24">
        <path d="M3 20V4C3 3.20435 3.3163 2.44151 3.87891 1.87891C4.44152 1.3163 5.20435 1 6 1H14V1.00098C14.4479 1.00046 14.8919 1.08734 15.3057 1.25879C15.7193 1.43022 16.0949 1.68198 16.4111 1.99902L19.9971 5.58496L20.1133 5.70605C20.3773 5.99585 20.5896 6.32951 20.7402 6.69238C20.9122 7.1067 21.0005 7.55143 21 8V20C21 20.7956 20.6837 21.5585 20.1211 22.1211C19.5585 22.6837 18.7957 23 18 23H6C5.20435 23 4.44152 22.6837 3.87891 22.1211C3.3163 21.5585 3 20.7956 3 20ZM10 16C10.5523 16 11 16.4477 11 17C11 17.5523 10.5523 18 10 18H8C7.44772 18 7 17.5523 7 17C7 16.4477 7.44772 16 8 16H10ZM16 16C16.5523 16 17 16.4477 17 17C17 17.5523 16.5523 18 16 18H14C13.4477 18 13 17.5523 13 17C13 16.4477 13.4477 16 14 16H16ZM10 12C10.5523 12 11 12.4477 11 13C11 13.5523 10.5523 14 10 14H8C7.44772 14 7 13.5523 7 13C7 12.4477 7.44772 12 8 12H10ZM16 12C16.5523 12 17 12.4477 17 13C17 13.5523 16.5523 14 16 14H14C13.4477 14 13 13.5523 13 13C13 12.4477 13.4477 12 14 12H16ZM18.584 7L15 3.41602V7H18.584ZM5 20C5 20.2652 5.10543 20.5195 5.29297 20.707C5.48051 20.8946 5.73478 21 6 21H18C18.2652 21 18.5195 20.8946 18.707 20.707C18.8946 20.5195 19 20.2652 19 20V9H15C14.4696 9 13.961 8.78913 13.5859 8.41406C13.2109 8.03899 13 7.53043 13 7V3H6C5.73478 3 5.4805 3.10543 5.29297 3.29297C5.10543 3.4805 5 3.73478 5 4V20Z" fill="currentColor"/>
    </symbol>
    
    <!-- GNB 아이콘 : 화학물질 확인 -->
    <symbol id="ico-gnb-chemical-verification" viewBox="0 0 24 24">
        <path d="M8.27271 19.8261C8.3687 19.2823 8.8871 18.9197 9.43091 19.0156C9.97479 19.1116 10.3384 19.6299 10.2424 20.1738C10.1072 20.9398 9.83249 21.6974 9.63989 22.3027C9.47244 22.829 8.91032 23.1205 8.38403 22.9531C7.8579 22.7856 7.56742 22.2234 7.73462 21.6972C7.96201 20.9826 8.16791 20.42 8.27271 19.8261ZM13.0374 13.1201C13.0374 12.5678 13.4851 12.1201 14.0374 12.1201C14.5896 12.1201 15.0374 12.5678 15.0374 13.1201C15.0374 14.3065 15.0378 15.9387 14.9094 17.5927C14.7822 19.2306 14.5234 20.9775 13.9661 22.371C13.761 22.8837 13.179 23.1335 12.6663 22.9287C12.1536 22.7236 11.9038 22.1416 12.1086 21.6289C12.5512 20.5225 12.7925 19.0193 12.9153 17.4375C13.0369 15.8716 13.0374 14.3136 13.0374 13.1201ZM17.9241 17.0048C18.4737 17.0583 18.8759 17.547 18.8225 18.0966C18.747 18.8733 18.4272 20.6193 18.3079 21.2158C18.1995 21.7573 17.6727 22.1092 17.1311 22.0009C16.5897 21.8926 16.2388 21.3656 16.3469 20.8242C16.4677 20.2204 16.7678 18.5666 16.8323 17.9033C16.8857 17.3536 17.3744 16.9514 17.9241 17.0048ZM5.43384 9.66792C5.61715 9.147 6.18827 8.87333 6.70923 9.05659C7.23021 9.23988 7.50383 9.811 7.32056 10.332C7.13229 10.8672 7.03657 11.4306 7.03735 11.998V12C7.03735 15.0803 6.52722 18.1915 5.9856 19.8164C5.81083 20.3401 5.24479 20.6228 4.72095 20.4482C4.19719 20.2734 3.9145 19.7074 4.08911 19.1835C4.54746 17.8083 5.03735 14.9194 5.03735 12C5.03634 11.2058 5.1703 10.4171 5.43384 9.66792ZM2.04712 15C2.5994 15 3.04712 15.4477 3.04712 16C3.04712 16.5522 2.5994 17 2.04712 17H2.03735C1.48507 17 1.03735 16.5522 1.03735 16C1.03735 15.4477 1.48507 15 2.03735 15H2.04712ZM9.03735 12C9.03735 11.2043 9.35365 10.4415 9.91626 9.87886C10.4789 9.31625 11.2417 8.99995 12.0374 8.99995C12.5896 8.99995 13.0374 9.44767 13.0374 9.99995C13.0374 10.5522 12.5896 11 12.0374 11C11.7721 11 11.5179 11.1054 11.3303 11.2929C11.1428 11.4805 11.0374 11.7347 11.0374 12C11.0374 13.0698 10.9336 14.5987 10.7717 16.1064C10.7128 16.6555 10.2193 17.0531 9.67017 16.9941C9.12135 16.9349 8.72466 16.4424 8.78345 15.8935C8.94154 14.4213 9.03735 12.9701 9.03735 12ZM21.6389 9.01949C22.1799 8.90999 22.7077 9.25983 22.8176 9.80074C22.8676 10.0472 22.8979 10.452 22.9192 10.8789C22.9418 11.3324 22.9568 11.8898 22.9612 12.4853C22.9699 13.6694 22.9374 15.0482 22.8323 16.0996C22.7773 16.649 22.2871 17.05 21.7375 16.9951C21.1882 16.94 20.7871 16.4498 20.842 15.9003C20.9369 14.9519 20.9697 13.6542 20.9612 12.5C20.9569 11.9262 20.943 11.398 20.9221 10.9785C20.8999 10.5334 20.8732 10.2763 20.8577 10.1992C20.7479 9.65791 21.0976 9.12925 21.6389 9.01949ZM17.0374 14V11.999C17.0379 11.1211 16.807 10.2584 16.3684 9.498C15.9298 8.73757 15.2984 8.10612 14.5383 7.66695C13.7782 7.22784 12.9161 6.99622 12.0383 6.99605C11.1604 6.99591 10.2977 7.22699 9.53735 7.66597C9.05906 7.94211 8.44729 7.77805 8.17114 7.29976C7.89518 6.8215 8.05914 6.20965 8.53735 5.93355C9.60173 5.31907 10.8093 4.99588 12.0383 4.99605C13.2675 4.99624 14.475 5.32059 15.5393 5.9355C16.6034 6.55037 17.4868 7.43437 18.1008 8.49898C18.7148 9.56355 19.038 10.771 19.0374 12V14C19.0374 14.5522 18.5896 15 18.0374 15C17.4851 15 17.0374 14.5522 17.0374 14ZM1.03735 12C1.03735 9.69133 1.76369 7.4412 3.11353 5.56831C4.46345 3.69539 6.36861 2.29448 8.55884 1.56441C10.7491 0.83433 13.1139 0.811572 15.3176 1.49995C17.5212 2.18837 19.452 3.55346 20.8372 5.40034C21.1684 5.84216 21.0787 6.46843 20.637 6.79976C20.1951 7.13099 19.5689 7.04134 19.2375 6.59956C18.1042 5.08849 16.5239 3.97234 14.7209 3.40913C12.918 2.84594 10.9836 2.86463 9.19165 3.46187C7.39979 4.05915 5.84104 5.20506 4.73657 6.73726C3.63209 8.26965 3.03735 10.111 3.03735 12C3.03735 12.5522 2.58964 13 2.03735 13C1.48507 13 1.03735 12.5522 1.03735 12Z" fill="currentColor"/>
    </symbol>
    
    <!-- GNB 아이콘 : 게시판 -->
    <symbol id="ico-gnb-bulletin" viewBox="0 0 24 24">
        <path d="M4 15V20H9V15H4ZM21 19C21.5523 19 22 19.4477 22 20C22 20.5523 21.5523 21 21 21H14C13.4477 21 13 20.5523 13 20C13 19.4477 13.4477 19 14 19H21ZM21 14C21.5523 14 22 14.4477 22 15C22 15.5523 21.5523 16 21 16H14C13.4477 16 13 15.5523 13 15C13 14.4477 13.4477 14 14 14H21ZM4 4V9H9V4H4ZM21 8C21.5523 8 22 8.44772 22 9C22 9.55228 21.5523 10 21 10H14C13.4477 10 13 9.55228 13 9C13 8.44772 13.4477 8 14 8H21ZM21 3C21.5523 3 22 3.44772 22 4C22 4.55228 21.5523 5 21 5H14C13.4477 5 13 4.55228 13 4C13 3.44772 13.4477 3 14 3H21ZM11 20C11 21.1046 10.1046 22 9 22H4C2.89543 22 2 21.1046 2 20V15C2 13.8954 2.89543 13 4 13H9C10.1046 13 11 13.8954 11 15V20ZM11 9C11 10.1046 10.1046 11 9 11H4C2.89543 11 2 10.1046 2 9V4C2 2.89543 2.89543 2 4 2H9C10.1046 2 11 2.89543 11 4V9Z" fill="currentColor"/>
    </symbol>
    
    <!-- GNB 아이콘 : 열기/닫기 토글 -->
    <symbol id="ico-gnb-close" viewBox="0 0 24 24">
        <path d="M18.75 6.16699C18.75 5.66073 18.3393 5.25 17.833 5.25H10.25V18.75H17.833C18.3393 18.75 18.75 18.3393 18.75 17.833V6.16699ZM14.8027 8.96973C15.0956 8.67689 15.5704 8.677 15.8633 8.96973C16.1562 9.26262 16.1562 9.73738 15.8633 10.0303L13.8936 12L15.8633 13.9697C16.1562 14.2626 16.1562 14.7374 15.8633 15.0303C15.5704 15.323 15.0956 15.3231 14.8027 15.0303L12.3027 12.5303C12.0101 12.2374 12.0101 11.7626 12.3027 11.4697L14.8027 8.96973ZM5.25 17.833C5.25 18.3393 5.66073 18.75 6.16699 18.75H8.75V5.25H6.16699C5.66073 5.25 5.25 5.66073 5.25 6.16699V17.833ZM20.25 17.833C20.25 19.1677 19.1677 20.25 17.833 20.25H6.16699C4.8323 20.25 3.75 19.1677 3.75 17.833V6.16699C3.75 4.8323 4.8323 3.75 6.16699 3.75H17.833C19.1677 3.75 20.25 4.8323 20.25 6.16699V17.833Z" fill="currentColor"/>
    </symbol>
</svg>
